<?xml version="1.0" encoding="iso-8859-1"?>
<!-- Generator: Adobe Illustrator 19.0.0, SVG Export Plug-In . SVG Version: 6.00 Build 0)  -->
<svg version="1.1" id="Layer_1" xmlns="http://www.w3.org/2000/svg" xmlns:xlink="http://www.w3.org/1999/xlink" x="0px" y="0px"
	 viewBox="0 0 512 512" style="enable-background:new 0 0 512 512;" xml:space="preserve" fill="#f2737e">
<g>
	<g>
		<path d="M461.913,66.783h-16.696V50.087C445.217,22.469,422.748,0,395.13,0s-50.087,22.469-50.087,50.087v16.696H166.957V50.087
			C166.957,22.469,144.488,0,116.87,0C89.252,0,66.783,22.469,66.783,50.087v16.696H50.087C22.469,66.783,0,89.252,0,116.87v345.043
			C0,489.531,22.469,512,50.087,512h411.826C489.531,512,512,489.531,512,461.913V116.87C512,89.252,489.531,66.783,461.913,66.783z
			 M378.435,50.087c0-9.206,7.49-16.696,16.696-16.696s16.696,7.49,16.696,16.696v66.783c0,9.206-7.49,16.696-16.696,16.696
			s-16.696-7.49-16.696-16.696V50.087z M100.174,50.087c0-9.206,7.49-16.696,16.696-16.696s16.696,7.49,16.696,16.696v66.783
			c0,9.206-7.49,16.696-16.696,16.696s-16.696-7.49-16.696-16.696V50.087z M478.609,461.913c0,9.206-7.49,16.696-16.696,16.696
			H50.087c-9.206,0-16.696-7.49-16.696-16.696V244.87h445.217V461.913z M478.609,211.478H33.391V116.87
			c0-9.206,7.49-16.696,16.696-16.696h16.696v16.696c0,27.618,22.469,50.087,50.087,50.087c27.618,0,50.087-22.469,50.087-50.087
			v-16.696h178.087v16.696c0,27.618,22.469,50.087,50.087,50.087s50.087-22.469,50.087-50.087v-16.696h16.696
			c9.206,0,16.696,7.49,16.696,16.696V211.478z"/>
	</g>
</g>
<g>
	<g>
		<path d="M428.517,278.261h-66.783c-9.22,0-16.696,7.475-16.696,16.696s7.475,16.696,16.696,16.696h66.783
			c9.22,0,16.696-7.475,16.696-16.696S437.738,278.261,428.517,278.261z"/>
	</g>
</g>
<g>
	<g>
		<path d="M428.517,345.043h-66.783c-9.22,0-16.696,7.475-16.696,16.696s7.475,16.696,16.696,16.696h66.783
			c9.22,0,16.696-7.475,16.696-16.696S437.738,345.043,428.517,345.043z"/>
	</g>
</g>
<g>
	<g>
		<path d="M428.517,411.826h-66.783c-9.22,0-16.696,7.475-16.696,16.696s7.475,16.696,16.696,16.696h66.783
			c9.22,0,16.696-7.475,16.696-16.696S437.738,411.826,428.517,411.826z"/>
	</g>
</g>
<g>
	<g>
		<path d="M289.387,278.261h-66.783c-9.22,0-16.696,7.475-16.696,16.696s7.475,16.696,16.696,16.696h66.783
			c9.22,0,16.696-7.475,16.696-16.696S298.607,278.261,289.387,278.261z"/>
	</g>
</g>
<g>
	<g>
		<path d="M289.387,345.043h-66.783c-9.22,0-16.696,7.475-16.696,16.696s7.475,16.696,16.696,16.696h66.783
			c9.22,0,16.696-7.475,16.696-16.696S298.607,345.043,289.387,345.043z"/>
	</g>
</g>
<g>
	<g>
		<path d="M289.387,411.826h-66.783c-9.22,0-16.696,7.475-16.696,16.696s7.475,16.696,16.696,16.696h66.783
			c9.22,0,16.696-7.475,16.696-16.696S298.607,411.826,289.387,411.826z"/>
	</g>
</g>
<g>
	<g>
		<path d="M150.256,278.261H83.474c-9.22,0-16.696,7.475-16.696,16.696s7.475,16.696,16.696,16.696h66.783
			c9.22,0,16.696-7.475,16.696-16.696S159.477,278.261,150.256,278.261z"/>
	</g>
</g>
<g>
	<g>
		<path d="M150.256,345.043H83.474c-9.22,0-16.696,7.475-16.696,16.696s7.475,16.696,16.696,16.696h66.783
			c9.22,0,16.696-7.475,16.696-16.696S159.477,345.043,150.256,345.043z"/>
	</g>
</g>
<g>
	<g>
		<path d="M150.256,411.826H83.474c-9.22,0-16.696,7.475-16.696,16.696s7.475,16.696,16.696,16.696h66.783
			c9.22,0,16.696-7.475,16.696-16.696S159.477,411.826,150.256,411.826z"/>
	</g>
</g>
<g>
</g>
<g>
</g>
<g>
</g>
<g>
</g>
<g>
</g>
<g>
</g>
<g>
</g>
<g>
</g>
<g>
</g>
<g>
</g>
<g>
</g>
<g>
</g>
<g>
</g>
<g>
</g>
<g>
</g>
</svg>
